<?xml version="1.0" encoding="UTF-8"?>
<!-- Generated by Pixelmator Pro 3.6.4 -->
<svg width="15458" height="15458" viewBox="0 0 15458 15458" xmlns="http://www.w3.org/2000/svg">
    <g id="Illustration">
        <g id="Group">
            <path id="Path" fill="#f4f7fa" stroke="none" d="M 4600.520996 2326.712891 C 4198.458008 2912.80957 4669.883301 3863.008789 4073.297119 4303.804688 C 3492.563965 4732.881836 2779.148438 4029.56543 2231.843994 4398.914063 C 1419.950317 4946.822266 1568.216919 7453.938965 2755.249023 9011.662109 C 3112.231445 9480.119141 3410.512207 9662.394531 3542.618896 10192.200195 C 3826.287842 11329.826172 2829.327393 12006.55957 3019.049072 12569.213867 C 3446.22998 13836.100586 10015.981445 14899.169922 12652.056641 11091.751953 C 13883.212891 9313.529297 14067.421875 6745.764648 12967.419922 4795.52832 C 10979.740234 1271.488281 5502.67334 1011.621094 4600.520996 2326.712891 Z"/>
            <g id="g1">
                <g id="g2">
                    <linearGradient id="linearGradient1" x1="9396.5075" y1="3361.8025" x2="10028.163333" y2="8390.740417" gradientUnits="userSpaceOnUse">
                        <stop offset="0" stop-color="#ff9085" stop-opacity="1"/>
                        <stop offset="1" stop-color="#fb6fbb" stop-opacity="1"/>
                    </linearGradient>
                    <path id="path1" fill="url(#linearGradient1)" stroke="none" d="M 7213.804199 12138.448242 C 7118.147949 12193.473633 6861.533691 12228.861328 6790.838867 12210.501953 C 6320.361328 12088.354492 5424.637695 11916.870117 5138.010742 11490.393555 C 5089.060547 11417.558594 5351.351074 11115.71875 5346.30957 11018.505859 C 5466.825195 10785.474609 5523.087402 10712.105469 5528.824707 10434.28125 C 5545.776367 9614.075195 3889.243652 9359.009766 4709.816406 8201.607422 C 5310.876465 7353.829102 6184.336426 7118.375977 5166.988281 5957.894531 C 4149.649902 4797.408203 3421.960449 1825.574219 5366.017578 1695.541016 C 6481.728027 1620.911133 6521.004395 3236.336914 7487.882324 3714.017578 C 8406.665039 4167.94043 8554.675781 5004.704102 8112.48584 6033.362305 C 7670.302246 7062.020508 8341.115234 7083.504883 9094.730469 7605.839355 C 9999.985352 8233.277344 8830.138672 9356.941406 8245.800781 9829.634766 C 7775.240234 10210.283203 6833.852051 11497.013672 7213.804199 12138.448242 Z"/>
                    <clipPath id="clipPath1">
                        <path d="M 7213.804199 12138.448486 C 7118.147949 12193.473633 6861.533691 12228.861816 6790.838867 12210.502441 C 6320.361328 12088.354736 5424.637695 11916.870361 5138.010742 11490.393311 C 5089.060547 11417.558105 5351.351074 11115.71875 5346.30957 11018.506348 C 5466.825195 10785.474121 5523.087402 10712.105469 5528.824707 10434.281738 C 5545.776367 9614.075195 3889.243652 9359.009277 4709.816406 8201.607422 C 5310.876465 7353.828857 6184.336426 7118.375732 5166.988281 5957.894287 C 4149.649902 4797.407959 3421.960449 1825.573975 5366.017578 1695.540771 C 6481.728027 1620.910889 6521.004395 3236.33667 7487.882324 3714.017334 C 8406.665039 4167.940186 8554.675781 5004.703857 8112.48584 6033.362061 C 7670.302246 7062.020264 8341.115234 7083.504639 9094.730469 7605.8396 C 9999.985352 8233.276855 8830.138672 9356.941895 8245.800781 9829.634766 C 7775.240234 10210.282715 6833.852051 11497.013672 7213.804199 12138.448486 Z"/>
                    </clipPath>
                    <g id="g3" clip-path="url(#clipPath1)">
                        <g id="g4" opacity="0.7" style="mix-blend-mode:soft-light;isolation:isolate">
                            <g id="g5">
                                <path id="path2" fill="#fcfdfe" stroke="none" d="M 6002.079102 11877.328125 L 5981.131836 11866.768555 C 7607.641602 8638.826172 7142.74707 4795.663086 4737.548828 1586.316406 L 4756.329102 1572.233398 C 5896.213867 3093.237305 6626.155762 4823.392578 6867.222168 6575.65918 C 7120.672852 8417.838867 6821.506836 10251.123047 6002.079102 11877.328125 Z"/>
                                <path id="path3" fill="#fcfdfe" stroke="none" d="M 9500.90332 7823.462402 C 8566.75 8147.151855 7311.40332 9092.066406 6702.553223 9929.84668 L 6683.573242 9916.048828 C 7294.826172 9074.980469 8555.224609 8126.310547 9493.214844 7801.286133 L 9500.90332 7823.462402 Z"/>
                                <path id="path4" fill="#fcfdfe" stroke="none" d="M 6314.115234 11240.019531 L 6291.052246 11235.669922 C 6390.570313 10706.621094 6218.804688 10147.579102 5780.525879 9574.084961 C 5459.163574 9153.577148 5004.652832 8735.230469 4429.591797 8330.652344 L 4443.106934 8311.462891 C 5020.108887 8717.416016 5476.365234 9137.422852 5799.167969 9559.831055 C 6241.668945 10138.834961 6414.920898 10704.130859 6314.115234 11240.019531 Z"/>
                                <path id="path5" fill="#fcfdfe" stroke="none" d="M 6823.34375 6328.275391 L 6800.083496 6325.126953 C 6936.380859 5318.246094 7656.294922 4528.719727 8236.220703 4043.672852 L 8251.28125 4061.686523 C 7674.530273 4544.063477 6958.624023 5328.857422 6823.34375 6328.275391 Z"/>
                                <path id="path6" fill="#fcfdfe" stroke="none" d="M 6195.351074 4088.737305 L 6175.693848 4101.566406 C 5550.105957 3142.989258 4418.078613 2740.307617 3798.97876 2585.587891 L 3804.665039 2562.813477 C 4427.10791 2718.375977 5565.380859 3123.454102 6195.351074 4088.737305 Z"/>
                            </g>
                        </g>
                    </g>
                </g>
            </g>
            <g id="g6">
                <linearGradient id="linearGradient2" x1="1330.53625" y1="5632.197083" x2="3344.552917" y2="904.549167" gradientUnits="userSpaceOnUse">
                    <stop offset="0.003597" stop-color="#e38ddd" stop-opacity="1"/>
                    <stop offset="1" stop-color="#9571f6" stop-opacity="1"/>
                </linearGradient>
                <path id="path7" fill="url(#linearGradient2)" stroke="none" d="M 3419.551514 11803.385742 C 2957.246826 11551.0625 2789.310791 10769.34375 2832.539795 10226.676758 C 2883.015869 9593.107422 3201.070068 9539.665039 3201.981689 9043.873047 C 3203.682373 8120.768555 2101.841309 7927.470215 2029.726196 6996.423828 C 1970.776367 6235.306641 2684.779785 6075.671875 2581.14209 5235.762695 C 2506.361816 4629.691406 2098.643066 4421.504883 2207.399414 3872.526367 C 2216.697266 3825.594727 2324.2229 3320.907227 2725.925781 3159.359375 C 3131.370117 2996.313477 3599.371338 3278.198242 3842.740967 3520.719727 C 4292.604492 3969.010742 4042.071533 4349.682617 4380.34668 5076.806641 C 4840.899414 6066.760742 5577.90918 5947.143555 5766.359375 6746.15918 C 5921.980957 7405.969727 5455.313965 7639.722168 5642.391113 8367.871094 C 5816.113281 9044.027344 6281.638672 9088.164063 6354.92334 9554.255859 C 6523.520996 10626.494141 4362.52832 12318.041992 3419.551514 11803.385742 Z"/>
                <clipPath id="clipPath2">
                    <path d="M 3419.551514 11803.385742 C 2957.246826 11551.062256 2789.310791 10769.344238 2832.539795 10226.676758 C 2883.015869 9593.107422 3201.070068 9539.665039 3201.981689 9043.872559 C 3203.682373 8120.768555 2101.841309 7927.470215 2029.726196 6996.423828 C 1970.776367 6235.306641 2684.779785 6075.671875 2581.14209 5235.762695 C 2506.361816 4629.691406 2098.643066 4421.504883 2207.399414 3872.526367 C 2216.697266 3825.594727 2324.2229 3320.907227 2725.925781 3159.359375 C 3131.370117 2996.313477 3599.371338 3278.198242 3842.740967 3520.719727 C 4292.604492 3969.010742 4042.071533 4349.682617 4380.34668 5076.806641 C 4840.899414 6066.760742 5577.90918 5947.143555 5766.359375 6746.15918 C 5921.980957 7405.969727 5455.313965 7639.722168 5642.391113 8367.871582 C 5816.113281 9044.026855 6281.638428 9088.163574 6354.923584 9554.256348 C 6523.52124 10626.493652 4362.52832 12318.042236 3419.551514 11803.385742 Z"/>
                </clipPath>
                <g id="g7" clip-path="url(#clipPath2)">
                    <g id="g8">
                        <g id="g9" opacity="0.7" style="mix-blend-mode:soft-light">
                            <path id="path8" fill="#ffffff" stroke="none" d="M 4092.720459 12231.693359 C 4090.214111 12231.693359 4087.738037 12230.550781 4086.112549 12228.398438 C 4083.361816 12224.751953 4084.083984 12219.568359 4087.72998 12216.813477 C 4458.911133 11936.776367 4755.214355 11591.40625 4968.404297 11190.291016 C 5170.34082 10810.306641 5379.117676 10417.464844 5306.79541 9968.445313 C 5252.118164 9628.926758 5070.640137 9463.554688 4840.875 9254.183594 C 4617.105957 9050.269531 4338.621094 8796.488281 4105.763672 8292.896484 C 3972.812988 8005.342773 3807.34668 7647.469238 3850.362061 7188.960938 C 3875.429199 6921.834961 3960.064697 6763.057617 4034.741211 6622.969727 C 4112.915039 6476.331055 4174.65625 6360.510742 4137.953613 6171.801758 C 4078.068115 5863.887695 3887.208984 5682.816406 3666.210938 5473.140625 C 3529.69165 5343.62793 3388.527344 5209.692383 3256.976318 5028.988281 C 2886.706543 4520.365234 2793.404053 3790.380859 2979.669189 2859.326172 C 2980.57251 2854.854492 2984.875488 2851.957031 2989.404297 2852.84082 C 2993.882324 2853.735352 2996.7854 2858.089844 2995.890381 2862.578125 C 2810.571289 3788.908203 2902.91333 4514.522461 3270.353271 5019.254883 C 3401.015137 5198.730469 3541.621826 5332.128906 3677.600098 5461.136719 C 3900.657227 5672.762695 4093.292236 5855.530273 4154.188965 6168.640625 C 4192.018555 6363.110352 4125.899414 6487.133789 4049.344971 6630.746094 C 3975.398682 6769.462891 3891.593506 6926.689453 3866.827393 7190.507813 C 3824.230957 7644.576172 3988.665771 8000.199707 4120.786621 8285.950195 C 4352.233887 8786.515625 4629.354004 9039.042969 4852.018066 9241.956055 C 5084.16748 9453.5 5267.529297 9620.589844 5323.132324 9965.816406 C 5396.335938 10420.325195 5186.236328 10815.658203 4983.050781 11197.982422 C 4768.682617 11601.322266 4470.821289 11948.519531 4097.696777 12230.017578 C 4096.20166 12231.144531 4094.453857 12231.693359 4092.720459 12231.693359 Z"/>
                        </g>
                        <g id="g10" opacity="0.7" style="mix-blend-mode:soft-light">
                            <path id="path9" fill="#ffffff" stroke="none" d="M 3853.300049 7414.429199 C 3851.654053 7414.429199 3849.993896 7413.936523 3848.54126 7412.911133 C 3093.880127 6880.957031 2706.976318 6350.623047 2515.293457 5999.398438 C 2307.281494 5618.25 2277.650879 5359.171875 2277.376221 5356.600586 C 2276.89209 5352.054688 2280.177734 5347.982422 2284.720947 5347.490234 C 2289.312744 5347.041992 2293.343018 5350.301758 2293.827393 5354.837891 C 2294.102051 5357.385742 2323.604248 5613.964844 2530.366943 5992.476563 C 2721.246338 6341.907227 3106.541016 6869.641602 3858.074951 7399.390137 C 3861.80835 7402.018555 3862.703369 7407.182129 3860.068848 7410.91748 C 3858.45752 7413.200195 3855.900146 7414.429199 3853.300049 7414.429199 Z"/>
                        </g>
                        <g id="g11" opacity="0.7" style="mix-blend-mode:soft-light">
                            <path id="path10" fill="#ffffff" stroke="none" d="M 4332.330078 8689.888672 C 4330.249023 8689.888672 4328.177734 8689.119141 4326.566406 8687.556641 C 4323.287109 8684.371094 4323.20752 8679.138672 4326.393555 8675.859375 C 4667.659668 8324.292969 4913.739258 7942.024902 5057.791992 7539.67334 C 5172.992188 7217.912109 5223.582031 6882.625977 5208.17041 6543.115234 C 5181.933594 5965.083984 4970.5625 5570.511719 4968.432617 5566.589844 C 4966.251465 5562.582031 4967.73291 5557.556641 4971.74707 5555.371094 C 4975.726563 5553.169922 4980.775879 5554.671875 4982.962891 5558.6875 C 4985.115723 5562.638672 5198.285156 5960.571289 5224.703125 6542.363281 C 5240.208008 6884.033203 5189.29248 7221.452148 5073.370117 7545.247559 C 4928.515625 7949.837402 4681.187012 8334.107422 4338.26709 8687.386719 C 4336.641602 8689.054688 4334.48877 8689.888672 4332.330078 8689.888672 Z"/>
                        </g>
                        <g id="g12" opacity="0.7" style="mix-blend-mode:soft-light">
                            <path id="path11" fill="#ffffff" stroke="none" d="M 5204.530762 10787.882813 C 5204.068848 10787.882813 5203.599121 10787.837891 5203.123047 10787.760742 C 4159.859375 10608.521484 3570.914795 10130.928711 3260.559082 9761.841797 C 2924.023438 9361.621094 2833.219482 8998.621094 2832.344482 8995.003906 C 2831.268311 8990.560547 2833.992432 8986.091797 2838.433838 8985.013672 C 2842.903564 8983.948242 2847.338867 8986.662109 2848.421143 8991.105469 C 2849.296143 8994.694336 2939.463379 9354.570313 3273.820068 9751.912109 C 3582.391357 10118.599609 4168.07666 10593.144531 5205.924316 10771.452148 C 5210.424805 10772.224609 5213.450195 10776.498047 5212.676758 10781.005859 C 5211.983398 10785.035156 5208.487793 10787.882813 5204.530762 10787.882813 Z"/>
                        </g>
                        <g id="g13" opacity="0.7" style="mix-blend-mode:soft-light">
                            <path id="path12" fill="#ffffff" stroke="none" d="M 3218.30249 4934.261719 C 3216.611816 4934.261719 3214.908936 4933.744141 3213.435791 4932.674805 C 3209.745361 4929.980469 3208.935547 4924.808594 3211.621094 4921.110352 C 3707.93457 4239.994141 3702.79126 3590.189453 3611.083984 3165.010742 C 3511.700439 2704.244141 3292.358398 2400.944336 3290.155029 2397.941406 C 3287.455322 2394.250977 3288.256836 2389.079102 3291.939209 2386.376953 C 3295.629883 2383.663086 3300.801514 2384.476563 3303.501465 2388.164063 C 3305.727051 2391.203125 3527.142334 2697.355469 3627.262451 3161.519531 C 3719.683838 3590.00293 3724.912598 4244.779297 3224.998047 4930.859375 C 3223.380615 4933.077148 3220.859863 4934.261719 3218.30249 4934.261719 Z"/>
                        </g>
                    </g>
                </g>
            </g>
            <g id="g14">
                <path id="path13" fill="#97a6b7" stroke="none" d="M 9196.087891 12351.538086 C 9045.269531 12301.513672 8932.545898 12173.510742 8900.758789 12016.191406 L 8681.248047 10929.769531 L 6803.491211 10996.448242 L 6572.391602 12128.263672 C 6540.028809 12286.767578 6669.585938 12445.792969 6818.798828 12504.174805 L 7604.410645 12811.556641 C 7750.53125 12868.725586 7907.59668 12891.496094 8063.70459 12878.141602 L 9723.989258 12736.108398 C 9772.521484 12731.954102 9811.456055 12693.802734 9817.104492 12644.861328 C 9822.751953 12595.915039 9856.754883 12540.958984 9810.473633 12525.606445 L 9196.087891 12351.538086 Z"/>
                <linearGradient id="linearGradient3" x1="9815.61125" y1="11273.286667" x2="9844.153917" y2="12343.654583" gradientUnits="userSpaceOnUse">
                    <stop offset="0" stop-color="#444b8c" stop-opacity="1"/>
                    <stop offset="0.996403" stop-color="#26264f" stop-opacity="1"/>
                </linearGradient>
                <path id="path14" fill="url(#linearGradient3)" stroke="none" d="M 9214.668945 12285.46582 C 9064.003906 12236.068359 8951.391602 12109.680664 8919.636719 11954.333984 L 8700.345703 10881.568359 L 6868.363281 10947.481445 L 6637.496094 12065.05957 C 6605.163574 12221.578125 6690.712402 12378.532227 6839.772461 12436.177734 L 7624.595215 12739.697266 C 7770.566895 12796.151367 7927.476074 12818.636719 8083.426758 12805.449219 L 9742.037109 12665.198242 C 9790.521484 12661.100586 9829.415039 12623.425781 9835.058594 12575.09375 C 9840.700195 12526.766602 9811.53125 12481.148438 9765.294922 12465.987305 L 9214.668945 12285.46582 Z"/>
                <linearGradient id="linearGradient4" x1="3699.036667" y1="11335.584583" x2="553.71375" y2="293.03625" gradientUnits="userSpaceOnUse">
                    <stop offset="0" stop-color="#444b8c" stop-opacity="1"/>
                    <stop offset="0.996403" stop-color="#26264f" stop-opacity="1"/>
                </linearGradient>
                <path id="path15" fill="url(#linearGradient4)" stroke="none" d="M 12213.275391 10174.402344 L 12213.275391 5302.921875 C 12213.275391 5203.03125 12130.949219 5117.989258 12030.066406 5113.936523 L 3660.780762 4777.506836 C 3533.424805 4772.387695 3428.9104 4860.388672 3428.9104 4973.087891 L 3428.9104 10356.807617 L 12213.275391 10174.402344 Z"/>
                <g id="g15">
                    <linearGradient id="linearGradient5" x1="1607.554583" y1="7584.018333" x2="7198.514583" y2="2525.529583" gradientUnits="userSpaceOnUse">
                        <stop offset="0.494049" stop-color="#ebeff2" stop-opacity="1"/>
                        <stop offset="1" stop-color="#ffffff" stop-opacity="1"/>
                    </linearGradient>
                    <path id="path16" fill="url(#linearGradient5)" stroke="none" d="M 3687.772705 5713.155273 L 3687.772705 9918.607422 C 3687.772705 10023.576172 3784.804199 10106.702148 3903.068115 10103.34082 L 11846.044922 9877.445313 C 11940.842773 9874.748047 12018.210938 9795.951172 12018.210938 9702.328125 L 12018.210938 5951.546875 L 3687.772705 5713.155273 Z"/>
                    <path id="path17" fill="#d8dee8" stroke="none" d="M 12018.210938 5960.730469 L 12018.210938 5530.282227 C 12018.210938 5438.578125 11942.427734 5360.717773 11849.577148 5357.255859 L 3898.669434 5060.636719 C 3782.818604 5056.31543 3687.772705 5136.894531 3687.772705 5239.713867 L 3687.772705 5722.338867 L 12018.210938 5960.730469 Z"/>
                    <g id="g16">
                        <linearGradient id="linearGradient6" x1="3792.787083" y1="4277.552917" x2="4855.14125" y2="6644.314583" gradientUnits="userSpaceOnUse">
                            <stop offset="0.003597" stop-color="#f36f56" stop-opacity="1"/>
                            <stop offset="1" stop-color="#ffc444" stop-opacity="1"/>
                        </linearGradient>
                        <path id="path18" fill="url(#linearGradient6)" stroke="none" d="M 4268.975586 5394.914063 C 4268.975586 5431.050781 4236.039063 5459.306641 4195.355469 5458.020508 C 4154.610352 5456.730469 4121.537109 5426.306641 4121.537109 5390.072266 C 4121.537109 5353.837891 4154.610352 5325.585938 4195.355469 5326.977539 C 4236.039063 5328.357422 4268.975586 5358.777344 4268.975586 5394.914063 Z"/>
                        <linearGradient id="linearGradient7" x1="4052.924583" y1="4160.786667" x2="5115.2825" y2="6527.55625" gradientUnits="userSpaceOnUse">
                            <stop offset="0.003597" stop-color="#f36f56" stop-opacity="1"/>
                            <stop offset="1" stop-color="#ffc444" stop-opacity="1"/>
                        </linearGradient>
                        <path id="path19" fill="url(#linearGradient7)" stroke="none" d="M 4586.297852 5405.334961 C 4586.297852 5441.259766 4553.747559 5469.356445 4513.539551 5468.083008 C 4473.272461 5466.813477 4440.586426 5436.576172 4440.586426 5400.549805 C 4440.586426 5364.526367 4473.272461 5336.43457 4513.539551 5337.805664 C 4553.747559 5339.176758 4586.297852 5369.40918 4586.297852 5405.334961 Z"/>
                        <linearGradient id="linearGradient8" x1="4310.037917" y1="4045.383333" x2="5372.390417" y2="6412.14125" gradientUnits="userSpaceOnUse">
                            <stop offset="0.003597" stop-color="#f36f56" stop-opacity="1"/>
                            <stop offset="1" stop-color="#ffc444" stop-opacity="1"/>
                        </linearGradient>
                        <path id="path20" fill="url(#linearGradient8)" stroke="none" d="M 4899.928711 5415.637695 C 4899.928711 5451.355469 4867.754883 5479.289063 4828.015137 5478.03125 C 4788.216309 5476.774414 4755.908203 5446.716797 4755.908203 5410.905273 C 4755.908203 5375.09375 4788.216309 5347.160156 4828.015137 5348.515625 C 4867.754883 5349.870117 4899.928711 5379.919922 4899.928711 5415.637695 Z"/>
                    </g>
                </g>
                <linearGradient id="linearGradient9" x1="3428.910417" y1="10134.82125" x2="12213.274167" y2="10134.82125" gradientUnits="userSpaceOnUse">
                    <stop offset="0" stop-color="#444b8c" stop-opacity="1"/>
                    <stop offset="0.996403" stop-color="#26264f" stop-opacity="1"/>
                </linearGradient>
                <path id="path21" fill="url(#linearGradient9)" stroke="none" d="M 3428.9104 10356.807617 L 3428.9104 11431.991211 C 3428.9104 11544.686523 3533.424805 11632.474609 3660.780762 11627.087891 L 12030.066406 11273.267578 C 12130.949219 11268.998047 12213.275391 11183.792969 12213.275391 11083.899414 L 12213.275391 10143.15625 L 3428.9104 10356.807617 Z"/>
                <g id="g17" opacity="0.48" style="mix-blend-mode:soft-light">
                    <path id="path22" fill="#ffffff" stroke="none" d="M 11306.78125 9545.458984 C 10619.396484 9313.289063 10050.717773 9786.857422 9556.620117 9413.990234 C 8999.583008 8993.616211 9449.819336 8186.03125 8934.553711 7710.266602 C 8218.766602 7049.349609 6787.740234 8074.324707 6166.219238 7451.237305 C 5738.910156 7022.855469 6242.970703 6337.020508 5881.133789 5615.572266 C 5697.159668 5248.750977 5352.422852 4998.673828 4933.956055 4828.686523 L 3660.778809 4777.506836 C 3533.424805 4772.387695 3428.912354 4860.388672 3428.912354 4973.087891 L 3428.912354 10356.807617 L 3428.912354 11431.991211 C 3428.912354 11544.686523 3533.424805 11632.474609 3660.778809 11627.087891 L 12030.066406 11273.267578 C 12130.955078 11268.998047 12213.277344 11183.792969 12213.277344 11083.899414 L 12213.277344 10388.746094 C 11918.542969 9867.688477 11593.182617 9642.191406 11306.78125 9545.458984 Z"/>
                </g>
            </g>
            <g id="g18">
                <g id="g19">
                    <linearGradient id="linearGradient10" x1="4225.680833" y1="12285.70875" x2="3457.23625" y2="13452.099167" gradientUnits="userSpaceOnUse">
                        <stop offset="0" stop-color="#311944" stop-opacity="1"/>
                        <stop offset="1" stop-color="#893976" stop-opacity="1"/>
                    </linearGradient>
                    <path id="path23" fill="url(#linearGradient10)" stroke="none" d="M 3927.050781 12594.189453 C 3927.050781 12723.836914 3820.518066 12832.625977 3688.688232 12837.182617 C 3556.396484 12841.756836 3448.817871 12739.709961 3448.817871 12609.241211 C 3448.817871 12478.772461 3556.396484 12369.955078 3688.688232 12366.203125 C 3820.518066 12362.459961 3927.050781 12464.539063 3927.050781 12594.189453 Z"/>
                    <linearGradient id="linearGradient11" x1="4267.064583" y1="12285.70875" x2="3498.62" y2="13452.099167" gradientUnits="userSpaceOnUse">
                        <stop offset="0" stop-color="#ff9085" stop-opacity="1"/>
                        <stop offset="1" stop-color="#fb6fbb" stop-opacity="1"/>
                    </linearGradient>
                    <path id="path24" fill="url(#linearGradient11)" stroke="none" d="M 3968.43457 12594.189453 C 3968.43457 12723.836914 3861.899902 12832.625977 3730.070068 12837.182617 C 3597.780273 12841.756836 3490.201904 12739.709961 3490.201904 12609.241211 C 3490.201904 12478.772461 3597.780273 12369.955078 3730.070068 12366.203125 C 3861.899902 12362.459961 3968.43457 12464.539063 3968.43457 12594.189453 Z"/>
                </g>
                <g id="g20">
                    <linearGradient id="linearGradient12" x1="4791.77" y1="9125.36" x2="6050.522083" y2="12367.595" gradientUnits="userSpaceOnUse">
                        <stop offset="0" stop-color="#311944" stop-opacity="1"/>
                        <stop offset="1" stop-color="#893976" stop-opacity="1"/>
                    </linearGradient>
                    <path id="path25" fill="url(#linearGradient12)" stroke="none" d="M 4894.689941 10091.544922 C 4894.689941 10616.178711 4152.970215 11587.675781 3812.819336 12005.977539 C 3727.732422 12110.616211 3568.19873 12114.661133 3482.60498 12013.936523 C 3136.83667 11607.060547 2362.412598 10634.554688 2362.412598 10093.513672 C 2362.412598 9394.246094 2942.946289 8835.726563 3648.042725 8845.866211 C 4341.251465 8855.839844 4894.689941 9413.480469 4894.689941 10091.544922 Z"/>
                    <linearGradient id="linearGradient13" x1="4836.547917" y1="9125.36" x2="6095.3" y2="12367.595" gradientUnits="userSpaceOnUse">
                        <stop offset="0" stop-color="#ff9085" stop-opacity="1"/>
                        <stop offset="1" stop-color="#fb6fbb" stop-opacity="1"/>
                    </linearGradient>
                    <path id="path26" fill="url(#linearGradient13)" stroke="none" d="M 4939.467285 10091.544922 C 4939.467285 10616.178711 4197.75 11587.675781 3857.596924 12005.977539 C 3772.509766 12110.616211 3612.978027 12114.661133 3527.384521 12013.936523 C 3181.614258 11607.060547 2407.191895 10634.554688 2407.191895 10093.513672 C 2407.191895 9394.246094 2987.723877 8835.726563 3692.822266 8845.866211 C 4386.03125 8855.839844 4939.467285 9413.480469 4939.467285 10091.544922 Z"/>
                    <path id="path27" fill="#ffffff" stroke="none" d="M 4392.787598 10091.972656 C 4392.787598 10472.689453 4080.881836 10784.205078 3692.822266 10787.785156 C 3301.063965 10791.402344 2980.733154 10480.378906 2980.733154 10093.066406 C 2980.733154 9705.753906 3301.063965 9394.234375 3692.822266 9397.242188 C 4080.881836 9400.220703 4392.787598 9711.250977 4392.787598 10091.972656 Z"/>
                    <g id="g21" opacity="0.3" style="mix-blend-mode:multiply">
                        <linearGradient id="linearGradient14" x1="3894.266667" y1="9491.470417" x2="5153.309167" y2="12734.452917" gradientUnits="userSpaceOnUse">
                            <stop offset="0" stop-color="#ff9085" stop-opacity="1"/>
                            <stop offset="1" stop-color="#fb6fbb" stop-opacity="1"/>
                        </linearGradient>
                        <path id="path28" fill="url(#linearGradient14)" stroke="none" d="M 3687.227295 11498.197266 C 3767.472412 10976.371094 4114.615723 10806.501953 4055.24292 10317.412109 C 3986.659668 9752.474609 3477.199219 9599.292969 3464.827393 9093.013672 C 3462.83374 9011.491211 3474.125244 8933.048828 3495.406006 8858.109375 C 2882.407715 8943.494141 2407.191895 9461.255859 2407.191895 10093.513672 C 2407.191895 10634.554688 3181.614258 11607.060547 3527.382324 12013.936523 C 3577.785156 12073.246094 3653.857422 12096.195313 3725.246094 12083.691406 C 3663.875244 11857.011719 3662.015869 11662.162109 3687.227295 11498.197266 Z"/>
                    </g>
                </g>
            </g>
            <g id="g22">
                <linearGradient id="linearGradient15" x1="8946.98875" y1="8359.120417" x2="6712.083333" y2="12027.101667" gradientUnits="userSpaceOnUse">
                    <stop offset="0" stop-color="#ffc444" stop-opacity="1"/>
                    <stop offset="0.996403" stop-color="#f36f56" stop-opacity="1"/>
                </linearGradient>
                <path id="path29" fill="url(#linearGradient15)" stroke="none" d="M 7611.629395 9606.324219 L 6088.03125 9664.742188 C 5568.51416 9684.660156 5134.322266 9261.804688 5134.322266 8721.578125 L 5134.322266 8462.378906 C 5134.322266 7922.151855 5568.51416 7492.82666 6088.03125 7505.009277 L 7611.629395 7540.739258 C 8073.411133 7551.566895 8439.792969 7959.20459 8439.792969 8449.695313 L 8439.792969 8685.035156 C 8439.792969 9175.529297 8073.411133 9588.615234 7611.629395 9606.324219 Z M 6088.03125 7875.435547 C 5772.121094 7871.375 5510.866211 8133.99707 5510.866211 8460.933594 L 5510.866211 8717.416016 C 5510.866211 9044.348633 5772.121094 9303.080078 6088.03125 9294.316406 L 7611.629395 9252.042969 C 7895.575195 9244.166016 8123.048828 8991.431641 8123.048828 8688.538086 L 8123.048828 8450.912109 C 8123.048828 8148.014648 7895.575195 7898.665527 7611.629395 7895.015625 L 6088.03125 7875.435547 Z"/>
                <linearGradient id="linearGradient16" x1="7992.265417" y1="5864.611667" x2="10421.57625" y2="7565.127917" gradientUnits="userSpaceOnUse">
                    <stop offset="0" stop-color="#aa80f9" stop-opacity="1"/>
                    <stop offset="0.996403" stop-color="#6165d7" stop-opacity="1"/>
                </linearGradient>
                <path id="path30" fill="url(#linearGradient16)" stroke="none" d="M 9118.306641 8912.162109 L 7731.805664 8937.683594 C 7260.335449 8946.363281 6866.805176 8535.306641 6866.805176 8021.146973 L 6866.805176 7774.455078 C 6866.805176 7260.294922 7260.335449 6859.070313 7731.805664 6879.525391 L 9118.306641 6939.677734 C 9539.663086 6957.958984 9874.342773 7353.967773 9874.342773 7822.876465 L 9874.342773 8047.855957 C 9874.342773 8516.764648 9539.663086 8904.407227 9118.306641 8912.162109 Z M 7731.805664 7232.52832 C 7445.033691 7223.125 7208.058594 7468.632324 7208.058594 7779.948242 L 7208.058594 8024.178223 C 7208.058594 8335.494141 7445.033691 8586.917969 7731.805664 8584.675781 L 9118.306641 8573.853516 C 9377.333984 8571.830078 9584.985352 8334.729492 9584.985352 8045.288574 L 9584.985352 7818.217285 C 9584.985352 7528.772461 9377.333984 7286.48291 9118.306641 7277.991211 L 7731.805664 7232.52832 Z"/>
                <linearGradient id="linearGradient17" x1="8946.989583" y1="8359.119167" x2="6712.0825" y2="12027.10375" gradientUnits="userSpaceOnUse">
                    <stop offset="0" stop-color="#ffc444" stop-opacity="1"/>
                    <stop offset="0.996403" stop-color="#f36f56" stop-opacity="1"/>
                </linearGradient>
                <path id="path31" fill="url(#linearGradient17)" stroke="none" d="M 8175.435547 7789.941895 C 8091.585449 7863.472656 8007.24707 7937.296875 7922.621582 8011.69873 C 8044.618652 8113.517578 8123.048828 8272.672852 8123.048828 8450.912109 L 8123.048828 8688.538086 C 8123.048828 8991.431641 7895.575195 9244.166016 7611.629395 9252.042969 L 6088.03125 9294.316406 C 5772.121094 9303.080078 5510.866211 9044.348633 5510.866211 8717.416016 L 5510.866211 8651.945313 C 5497.78418 8662.073242 5484.706543 8672.233398 5471.685547 8682.483398 C 5365.86084 8765.751953 5262.030273 8852.795898 5159.558105 8942.626953 C 5259.788086 9373.291016 5642.673828 9681.816406 6088.03125 9664.742188 L 7611.629395 9606.324219 C 8073.411133 9588.615234 8439.792969 9175.529297 8439.792969 8685.035156 L 8439.792969 8449.695313 C 8439.792969 8190.556152 8338.322266 7955.823242 8175.435547 7789.941895 Z"/>
            </g>
            <g id="g23">
                <g id="g24">
                    <linearGradient id="linearGradient18" x1="14949.422917" y1="3483.260833" x2="10301.485417" y2="12552.422083" gradientUnits="userSpaceOnUse">
                        <stop offset="0" stop-color="#311944" stop-opacity="1"/>
                        <stop offset="1" stop-color="#893976" stop-opacity="1"/>
                    </linearGradient>
                    <path id="path32" fill="url(#linearGradient18)" stroke="none" d="M 12634.660156 2277.206055 L 9253.745117 2038.167969 L 9220.924805 1978.731445 L 9206.56543 1977.730469 C 9046.490234 1966.605469 8916.253906 2081.572266 8916.253906 2234.554688 L 8916.253906 7300.602539 C 8916.253906 7453.581055 9046.490234 7577.600586 9206.56543 7577.600586 L 9254.461914 7577.600586 L 9269.25293 7547.54248 L 12616.52832 7467.387207 C 12762.697266 7467.387207 12902.140625 7459.692871 12902.140625 7314.253906 L 12902.140625 2497.900391 C 12902.140625 2352.454102 12780.829102 2287.362305 12634.660156 2277.206055 Z"/>
                </g>
                <g id="g25">
                    <linearGradient id="linearGradient19" x1="15027.577917" y1="3446.204167" x2="10348.902083" y2="12575.343333" gradientUnits="userSpaceOnUse">
                        <stop offset="0" stop-color="#ffc444" stop-opacity="1"/>
                        <stop offset="0.996403" stop-color="#f36f56" stop-opacity="1"/>
                    </linearGradient>
                    <path id="path33" fill="url(#linearGradient19)" stroke="none" d="M 12697.049805 2216.191406 L 9265.730469 1977.730469 C 9105.654297 1966.605469 8975.416992 2081.572266 8975.416992 2234.554688 L 8975.416992 7300.602539 C 8975.416992 7453.581055 9105.654297 7577.600586 9265.730469 7577.600586 L 12697.049805 7577.600586 C 12843.216797 7577.600586 12961.303711 7459.692871 12961.303711 7314.253906 L 12961.303711 2497.900391 C 12961.303711 2352.454102 12843.216797 2226.347656 12697.049805 2216.191406 Z"/>
                </g>
                <path id="path34" fill="#ffffff" stroke="none" style="mix-blend-mode:soft-light" d="M 12670.455078 3118.734375 L 9294.726563 2923.698242 L 9294.726563 2378.910156 L 12670.455078 2596.777344 L 12670.455078 3118.734375 Z"/>
                <path id="path35" fill="#ffffff" stroke="none" style="mix-blend-mode:soft-light" d="M 12670.455078 6022.327148 L 9294.726563 5954.296875 L 9294.726563 5714.086914 L 12670.455078 5792.183594 L 12670.455078 6022.327148 Z"/>
                <path id="path36" fill="#ffffff" stroke="none" style="mix-blend-mode:soft-light" d="M 12670.455078 6438.916016 L 9294.726563 6389.107422 L 9294.726563 6148.897461 L 12670.455078 6208.773438 L 12670.455078 6438.916016 Z"/>
                <path id="path37" fill="#ffffff" stroke="none" style="mix-blend-mode:soft-light" d="M 12670.455078 6855.501953 L 9294.726563 6823.917969 L 9294.726563 6583.704102 L 12670.455078 6625.358398 L 12670.455078 6855.501953 Z"/>
                <path id="path38" fill="#fdcd8a" stroke="none" d="M 12670.455078 5203.475586 L 9294.726563 5099.625977 L 9294.726563 3135.758789 L 12670.455078 3321.904297 L 12670.455078 5203.475586 Z"/>
            </g>
            <g id="g26">
                <linearGradient id="linearGradient20" x1="9082.885417" y1="6793.390833" x2="8811.202083" y2="7046.7375" gradientUnits="userSpaceOnUse">
                    <stop offset="0" stop-color="#ab316d" stop-opacity="1"/>
                    <stop offset="1" stop-color="#792d3d" stop-opacity="1"/>
                </linearGradient>
                <path id="path39" fill="url(#linearGradient20)" stroke="none" d="M 8960.43457 6844.853516 L 8875.22168 6746.078125 C 8875.22168 6746.078125 8812.796875 6651.875977 8868.111328 6528.776367 C 8923.429688 6405.676758 8984.136719 6444.836914 8984.136719 6444.836914 L 8960.319336 6532.682617 C 8960.319336 6532.682617 8944.585938 6589.327148 8993.90625 6665.222656 C 9036.421875 6755.070313 9040.175781 6821.822266 9040.175781 6821.822266 L 8960.43457 6844.853516 Z"/>
                <linearGradient id="linearGradient21" x1="12899.959167" y1="7553.052083" x2="12490.366667" y2="7935" gradientUnits="userSpaceOnUse">
                    <stop offset="0" stop-color="#ab316d" stop-opacity="1"/>
                    <stop offset="1" stop-color="#792d3d" stop-opacity="1"/>
                </linearGradient>
                <path id="path40" fill="url(#linearGradient21)" stroke="none" d="M 12763.238281 7485.4375 L 12873.65332 7399.153809 L 12932.220703 7231.974609 C 12932.220703 7231.974609 13055.037109 7291.125977 12974.179688 7447.025879 C 12926.143555 7497.440918 12811.928711 7569.950684 12760.141602 7645.14209 C 12708.351563 7720.333008 12763.238281 7485.4375 12763.238281 7485.4375 Z"/>
                <linearGradient id="linearGradient22" x1="11984.819583" y1="5881.275417" x2="13627.775417" y2="8976.270417" gradientUnits="userSpaceOnUse">
                    <stop offset="0" stop-color="#ff9085" stop-opacity="1"/>
                    <stop offset="1" stop-color="#fb6fbb" stop-opacity="1"/>
                </linearGradient>
                <path id="path41" fill="url(#linearGradient22)" stroke="none" d="M 11624.526367 8681.193359 C 11624.526367 8681.193359 12148.020508 8369.294922 12276.816406 8268.958008 C 12411.106445 8164.323242 12804.868164 7665.779785 12837.428711 7616.154297 C 12869.989258 7566.528809 12759.753906 7454.350098 12759.753906 7454.350098 C 12759.753906 7454.350098 12129.773438 8132.450684 11421 7866.325195 C 11516.926758 8133.533203 11624.526367 8681.193359 11624.526367 8681.193359 Z"/>
                <linearGradient id="linearGradient23" x1="11420.58875" y1="13097.259167" x2="11443.6865" y2="12783.8525" gradientUnits="userSpaceOnUse">
                    <stop offset="0" stop-color="#ab316d" stop-opacity="1"/>
                    <stop offset="1" stop-color="#792d3d" stop-opacity="1"/>
                </linearGradient>
                <path id="path42" fill="url(#linearGradient23)" stroke="none" d="M 11450.1875 12809.037109 C 11450.1875 12809.037109 11505.926758 12986.230469 11482.291992 13061.250977 C 11555.869141 13065.226563 11604.095703 13059.367188 11604.095703 13059.367188 C 11604.095703 13059.367188 11580.352539 12978.678711 11577.456055 12939.359375 C 11573.542969 12886.234375 11580.389648 12801.253906 11580.389648 12801.253906 L 11450.1875 12809.037109 Z"/>
                <path id="path43" fill="#26264f" stroke="none" d="M 10358.124023 13167.611328 C 10362.150391 13173.283203 10369.185547 13185.018555 10368.727539 13200.191406 C 10368.481445 13208.431641 10366.101563 13215.051758 10363.28125 13221.09375 C 10349.355469 13250.936523 10330.727539 13253.633789 10308.550781 13284.753906 C 10295.004883 13303.776367 10296.842773 13309.949219 10285.111328 13318.111328 C 10269.649414 13328.87793 10251.949219 13328.259766 10236.637695 13327.307617 C 10210.764648 13325.700195 10173.612305 13322.030273 10127.163086 13312.992188 C 10154.052734 13283.150391 10182.538086 13252.921875 10212.705078 13222.505859 C 10225.935547 13209.167969 10239.123047 13196.15918 10252.25 13183.480469 L 10326.25293 13164.404297 C 10336.876953 13165.474609 10347.5 13166.541016 10358.124023 13167.611328 Z"/>
                <linearGradient id="linearGradient24" x1="10154.4375" y1="13127.97875" x2="10182.273875" y2="12750.275417" gradientUnits="userSpaceOnUse">
                    <stop offset="0" stop-color="#ab316d" stop-opacity="1"/>
                    <stop offset="1" stop-color="#792d3d" stop-opacity="1"/>
                </linearGradient>
                <path id="path44" fill="url(#linearGradient24)" stroke="none" d="M 10323.907227 12812.62207 C 10323.907227 12812.62207 10266.766602 13024.931641 10314.841797 13089.103516 C 10355.138672 13152.706055 10291.963867 13104.801758 10291.963867 13104.801758 L 10207.633789 13168.107422 L 10154.042969 13246.716797 C 10154.042969 13246.716797 10213.337891 13039.164063 10207.833008 12954.663086 C 10202.323242 12870.162109 10200.644531 12813.318359 10200.644531 12813.318359 L 10323.907227 12812.62207 Z"/>
                <linearGradient id="linearGradient25" x1="9867.401667" y1="6854.224583" x2="12593.094583" y2="9384.71" gradientUnits="userSpaceOnUse">
                    <stop offset="0" stop-color="#ff9085" stop-opacity="1"/>
                    <stop offset="1" stop-color="#fb6fbb" stop-opacity="1"/>
                </linearGradient>
                <path id="path45" fill="url(#linearGradient25)" stroke="none" d="M 10885.099609 7810.408691 C 10667.142578 7783.817871 10306.030273 7711.707031 9917.905273 7490.287598 C 9493.049805 7247.924805 9234.831055 6940.194336 9102.75293 6757.064453 C 9035.259766 6784.476563 8967.777344 6811.881836 8900.287109 6839.282227 C 9086.393555 7359.187988 9344.080078 7627.466309 9551.570313 7777.046875 C 9721.435547 7899.5 9918.607422 7986.348633 10129.744141 8228.87793 C 10281.475586 8403.166016 10370.18457 8577.185547 10421.750977 8698.369141 C 10576.202148 8402.380859 10730.645508 8106.396973 10885.099609 7810.408691 Z"/>
                <linearGradient id="linearGradient26" x1="10294.798333" y1="9051.990417" x2="11893.404167" y2="9169.80625" gradientUnits="userSpaceOnUse">
                    <stop offset="0" stop-color="#311944" stop-opacity="1"/>
                    <stop offset="1" stop-color="#893976" stop-opacity="1"/>
                </linearGradient>
                <path id="path46" fill="url(#linearGradient26)" stroke="none" d="M 10431.96582 9203.158203 C 10431.96582 9203.158203 10274.729492 9324.267578 10234.679688 9867.724609 C 10194.628906 10411.185547 10100.099609 12027.8125 10100.099609 12027.8125 L 10149.648438 12880.932617 C 10149.648438 12880.932617 10265.275391 12893.599609 10344.626953 12876.03418 C 10437.959961 12562.871094 10591.498047 12032.804688 10570.336914 11578.507813 C 10583.09082 11087.679688 10845.674805 10490.365234 10845.674805 10490.365234 C 10845.674805 10490.365234 10986.230469 11125.195313 11095.324219 11445.467773 C 11204.426758 11765.739258 11384.004883 12757.125 11402.146484 12828.710938 C 11555.554688 12854.097656 11624.526367 12818.12793 11624.526367 12818.12793 C 11624.526367 12818.12793 11602.663086 11763.863281 11538.675781 11361.055664 C 11474.692383 10958.236328 11630.267578 9572.473633 11495.019531 9289.306641 C 11155.951172 9123.8125 10431.96582 9203.158203 10431.96582 9203.158203 Z"/>
                <linearGradient id="linearGradient27" x1="11361.526667" y1="9003.545833" x2="12506.05875" y2="11293.765833" gradientUnits="userSpaceOnUse">
                    <stop offset="0" stop-color="#311944" stop-opacity="1"/>
                    <stop offset="1" stop-color="#893976" stop-opacity="1"/>
                </linearGradient>
                <path id="path47" fill="url(#linearGradient27)" stroke="none" d="M 10431.96582 9203.158203 C 10431.96582 9203.158203 10274.729492 9324.267578 10234.679688 9867.724609 C 10194.628906 10411.185547 10100.099609 12027.8125 10100.099609 12027.8125 L 10149.652344 12880.932617 C 10149.652344 12880.932617 10265.271484 12893.599609 10344.626953 12876.03418 C 10437.959961 12562.871094 10591.498047 12032.804688 10570.336914 11578.507813 C 10583.09082 11087.679688 10845.674805 10490.365234 10845.674805 10490.365234 C 10845.674805 10490.365234 10986.234375 11125.195313 11095.324219 11445.467773 C 11204.426758 11765.739258 11384.008789 12757.125 11402.150391 12828.714844 C 11555.549805 12854.097656 11624.526367 12818.12793 11624.526367 12818.12793 C 11624.526367 12818.12793 11602.65918 11763.863281 11538.675781 11361.055664 C 11474.688477 10958.236328 11630.267578 9572.473633 11495.019531 9289.306641 C 11155.953125 9123.8125 10431.96582 9203.158203 10431.96582 9203.158203 Z"/>
                <g id="g27">
                    <path id="path48" fill="#26264f" stroke="none" d="M 11459.478516 13125.256836 C 11459.478516 13125.256836 11442.423828 13123.999023 11442.219727 13146.130859 C 11442.016602 13168.261719 11427.332031 13243.368164 11513.761719 13253.3125 C 11600.195313 13263.25293 11614.276367 13254.549805 11617.120117 13254.760742 C 11619.958984 13254.96875 11599.72168 13180.599609 11599.72168 13180.599609 L 11574.625977 13143.026367 L 11500.587891 13129.711914 L 11459.478516 13125.256836 Z"/>
                    <path id="path49" fill="#444b8c" stroke="none" d="M 11646.097656 13215.482422 C 11645.599609 13197.050781 11637.481445 13167.489258 11628.887695 13143.550781 C 11616.121094 13107.988281 11629.632813 13096.025391 11617.31543 13063.583008 C 11613.05957 13052.368164 11608.901367 13041.719727 11598.964844 13030.746094 C 11596.677734 13028.214844 11574.385742 13004.345703 11539.462891 13002.905273 C 11532.59082 13002.625 11522.00293 13002.298828 11510.148438 13007.540039 C 11496.179688 13013.716797 11488.647461 13023.978516 11482.202148 13033.003906 C 11472.066406 13047.180664 11473.807617 13051.892578 11456.75293 13093.408203 C 11455.376953 13096.737305 11452.37793 13103.979492 11449.739258 13114.086914 C 11447.719727 13121.818359 11446.649414 13128.357422 11446.061523 13132.836914 C 11468.800781 13134.513672 11555.942383 13144.511719 11573.422852 13159.367188 C 11590.901367 13174.231445 11598.46582 13197.652344 11596.791992 13220.394531 C 11595.113281 13243.135742 11605.698242 13254.630859 11617.120117 13254.760742 C 11627.325195 13254.871094 11648.893555 13237.544922 11646.097656 13215.482422 Z"/>
                </g>
                <path id="path50" fill="#444b8c" stroke="none" d="M 10294.745117 13057.210938 C 10314.253906 13058.952148 10327.431641 13075.549805 10335.473633 13113.802734 C 10343.517578 13152.050781 10392.93457 13189.005859 10333.017578 13176.624023 C 10273.095703 13164.242188 10222.841797 13246.720703 10198.899414 13276.823242 C 10174.955078 13306.917969 10114.874023 13330.802734 10118.597656 13299.939453 C 10122.318359 13269.072266 10148.978516 13256.482422 10158.516602 13225.322266 C 10168.056641 13194.157227 10250.255859 13053.226563 10294.745117 13057.210938 Z"/>
                <linearGradient id="linearGradient28" x1="11305.718333" y1="8955.058333" x2="12597.905833" y2="11125.435417" gradientUnits="userSpaceOnUse">
                    <stop offset="0" stop-color="#311944" stop-opacity="1"/>
                    <stop offset="1" stop-color="#893976" stop-opacity="1"/>
                </linearGradient>
                <path id="path51" fill="url(#linearGradient28)" stroke="none" opacity="0.3" style="mix-blend-mode:multiply" d="M 11280.576172 11095.451172 C 11320.188477 11170.105469 11377.424805 11306.429688 11360.509766 11899.259766 C 11358.612305 11965.93457 11348.572266 12290.543945 11391.269531 12498.202148 C 11403.010742 12555.314453 11417.341797 12631.287109 11465.224609 12705.277344 C 11494.018555 12749.772461 11523.745117 12792.834961 11553.566406 12835.208984 C 11601.757813 12829.899414 11624.530273 12818.12793 11624.530273 12818.12793 C 11624.530273 12818.12793 11602.661133 11763.863281 11538.673828 11361.051758 C 11474.68457 10958.236328 11630.271484 9572.473633 11495.021484 9289.306641 C 11155.951172 9123.8125 10431.970703 9203.158203 10431.970703 9203.158203 C 10431.970703 9203.158203 10274.729492 9324.267578 10234.682617 9867.724609 C 10224.932617 10000.007813 10211.955078 10195.947266 10197.892578 10416.605469 C 10247.739258 10455.412109 10322.0625 10500.972656 10417.929688 10515.267578 C 10657.617188 10551.001953 10782.061523 10354.003906 10911.865234 10413.879883 C 11016.757813 10462.263672 10968.494141 10606.136719 11127.892578 10881.697266 C 11204.073242 11013.391602 11227.990234 10996.345703 11280.576172 11095.451172 Z"/>
                <linearGradient id="linearGradient29" x1="11055.94" y1="6157.917917" x2="12855.420417" y2="9547.773333" gradientUnits="userSpaceOnUse">
                    <stop offset="0" stop-color="#ff9085" stop-opacity="1"/>
                    <stop offset="1" stop-color="#fb6fbb" stop-opacity="1"/>
                </linearGradient>
                <path id="path52" fill="url(#linearGradient29)" stroke="none" d="M 11230.757813 7833.036621 C 11100.722656 7819.600586 10771.734375 7758.939941 10605.169922 7902.547363 C 10544.700195 7954.683594 10498.529297 8006.40918 10461.977539 8063.041504 C 10353.985352 8230.367188 10336.333984 8395.248047 10330.145508 8452.173828 C 10261.179688 9086.588867 9957.279297 9433.818359 10127.837891 9759.498047 C 10384.607422 10249.796875 11517.40332 10310.713867 11776.786133 9927.449219 C 11973.452148 9636.849609 11564.961914 9243.144531 11807.322266 8843.416016 C 11928.660156 8643.291016 11983.347656 8408.75293 12093.599609 8202.307617 C 12096.335938 8197.188477 12107.472656 8181.213867 12101.290039 8164.412598 C 12077.963867 8100.977051 11815.388672 8147.998535 11742.899414 8048.055176 C 11614.665039 7871.265137 11361.948242 7846.590332 11230.757813 7833.036621 Z"/>
                <g id="g28">
                    <linearGradient id="linearGradient30" x1="11627.567083" y1="7763.929583" x2="11308.632083" y2="8203.896667" gradientUnits="userSpaceOnUse">
                        <stop offset="0" stop-color="#ab316d" stop-opacity="1"/>
                        <stop offset="1" stop-color="#792d3d" stop-opacity="1"/>
                    </linearGradient>
                    <path id="path53" fill="url(#linearGradient30)" stroke="none" d="M 11148.323242 7624.967773 C 11164.740234 7544.983398 11232.382813 7497.95752 11247.130859 7487.907227 C 11308.864258 7445.854004 11321.085938 7442.057617 11341.391602 7439.726074 L 11369.052734 7437.602051 C 11369.052734 7437.602051 11370.519531 7437.744629 11372.029297 7437.947754 C 11387.976563 7440.096191 11434.586914 7462.366211 11442.856445 7469.14502 C 11469.296875 7490.800293 11438.537109 7628.117188 11341.306641 7794.551758 C 11336.908203 7808.927734 11332.509766 7823.307617 11328.104492 7837.679199 C 11471.882813 7869.800293 11504.939453 7888.834961 11503.869141 7900.618652 C 11501.825195 7923.189453 11373.097656 7934.847168 11259.739258 7924.194824 C 11116.829102 7910.762695 10969.360352 7859.159668 10973.302734 7831.909668 C 10975.138672 7819.242676 11010.490234 7806.246094 11163.014648 7806.474121 C 11174.75 7792.301758 11186.478516 7778.133301 11198.22168 7763.960938 C 11189.432617 7751.546387 11136.226563 7683.887207 11148.323242 7624.967773 Z"/>
                    <linearGradient id="linearGradient31" x1="13711.720833" y1="6577.1125" x2="11265.43125" y2="7926.35625" gradientUnits="userSpaceOnUse">
                        <stop offset="0" stop-color="#444b8c" stop-opacity="1"/>
                        <stop offset="0.996403" stop-color="#26264f" stop-opacity="1"/>
                    </linearGradient>
                    <path id="path54" fill="url(#linearGradient31)" stroke="none" d="M 11345.577148 7382.90625 C 11321.576172 7416.483887 11306.124023 7476.717285 11309.21875 7495.491699 C 11312.833984 7517.399414 11319.392578 7520.166504 11317.390625 7534.187988 C 11311.779297 7573.567871 11238.407227 7585.502441 11240.950195 7605.733398 C 11242.771484 7620.186523 11280.680664 7617.745117 11285.830078 7636.100586 C 11291.464844 7656.217773 11249.011719 7670.040039 11227.668945 7718.018066 C 11224.34082 7725.500977 11204.150391 7770.890625 11223.638672 7799.918945 C 11241.827148 7827.006348 11287.188477 7824.243652 11338.322266 7821.39502 C 11394.726563 7818.253906 11436.012695 7804.704102 11448.124023 7800.419434 C 11486.289063 7786.914551 11527.327148 7772.39209 11563.224609 7734.725098 C 11564.34375 7733.553223 11565.734375 7732.068359 11567.364258 7730.23291 C 11614.025391 7677.812012 11621.84082 7608.105957 11623.94043 7590.857422 C 11643.455078 7430.566895 11721.610352 7352.152832 11678.981445 7300.154785 C 11620.930664 7229.333984 11409.446289 7293.546875 11345.577148 7382.90625 Z"/>
                    <linearGradient id="linearGradient32" x1="11346.509167" y1="7535.804583" x2="11162.68375" y2="7984.37625" gradientUnits="userSpaceOnUse">
                        <stop offset="0" stop-color="#ab316d" stop-opacity="1"/>
                        <stop offset="1" stop-color="#792d3d" stop-opacity="1"/>
                    </linearGradient>
                    <path id="path55" fill="url(#linearGradient32)" stroke="none" d="M 11266.428711 7603.10498 C 11288.617188 7591.95166 11302.799805 7620.491699 11291.027344 7643.656738 C 11279.253906 7666.817383 11244.499023 7679.292969 11225.140625 7663.541992 C 11205.782227 7647.791016 11236.560547 7618.115723 11266.428711 7603.10498 Z"/>
                </g>
                <linearGradient id="linearGradient33" x1="11974.596667" y1="7315.331667" x2="13151.146667" y2="9185.37625" gradientUnits="userSpaceOnUse">
                    <stop offset="0" stop-color="#ff9085" stop-opacity="1"/>
                    <stop offset="1" stop-color="#fb6fbb" stop-opacity="1"/>
                </linearGradient>
                <path id="path56" fill="url(#linearGradient33)" stroke="none" opacity="0.3" style="mix-blend-mode:multiply" d="M 11376.833008 9351.689453 C 11281.146484 9415.958984 11198.799805 9390.275391 11060.97168 9506.201172 C 10948.300781 9600.976563 10915.425781 9661.177734 10873.587891 9732.304688 C 10728.509766 9978.939453 10327.400391 9827.103516 10088.767578 9653.707031 C 10097.021484 9689.424805 10109.566406 9724.605469 10127.837891 9759.498047 C 10384.607422 10249.796875 11517.40332 10310.713867 11776.786133 9927.449219 C 11973.452148 9636.849609 11564.961914 9243.144531 11807.322266 8843.416016 C 11878.908203 8725.349609 11927.30957 8595.304688 11977.597656 8466.117188 C 12101.566406 8388.904297 12223.287109 8310.661133 12276.816406 8268.958008 C 12317.305664 8237.410156 12381.428711 8169.962891 12452.077148 8089.900879 C 12366.855469 8155.802734 12229.158203 8247.644531 12042.069336 8309.037109 C 11823.441406 8380.774414 11790.191406 8327.974609 11701.87793 8386.328125 C 11422.664063 8570.821289 11668.013672 9156.111328 11376.833008 9351.689453 Z"/>
            </g>
        </g>
    </g>
</svg>
